<svg id="Layer_1" data-name="Layer 1" xmlns="http://www.w3.org/2000/svg" viewBox="0 0 935.99 667.79"><defs><style>.cls-1{fill:#f07b47;}.cls-2{fill:#fffaff;}</style></defs><title>logo-white</title><path class="cls-1" d="M55.66,221.31a12.67,12.67,0,0,1,11.76-8H527.55a17.68,17.68,0,0,1,16.66,11.11l15.46,43.11c3.24,8.51-6.23,20.57-15.75,20.57l-193.71.54c-8.24,0-14.9,6.3-14.9,14V866.47c0,7.75-6.69,14-14.95,14H255.79c-8.26,0-14.95-6.28-14.95-14V302.07c0-7.7-6.57-13.94-14.68-13.94H47.69a12.66,12.66,0,0,1-11.76-17.36Z" transform="translate(-35.01 -213.33)"/><path class="cls-2" d="M392.36,417v-81A10.9,10.9,0,0,1,403,325l83-1.74a10.9,10.9,0,0,1,10.86,13.31l-18.77,82.77a10.91,10.91,0,0,1-10.63,8.49H403.27A10.9,10.9,0,0,1,392.36,417Z" transform="translate(-35.01 -213.33)"/><path class="cls-2" d="M532,213.37c46.28.1,189.51.39,260.33.56q88.14,0,133.43,51.86T971,411.1q0,93.45-45.29,145.77T792.28,608.26H625.35c-6.06,0-11,5.63-11,12.57V868.55c0,6.94-4.91,12.57-11,12.57H547.81c-6.06,0-11-5.63-11-12.57l-.08-578.77a14.21,14.21,0,0,0-.47-3.62L514.4,213.33M766.17,533.51q66.11.94,96.7-30.84t30.6-91.58q0-59.79-30.6-91.11t-96.7-31.3H625.35c-6.06,0-11,5.63-11,12.57V520.94c0,6.94,4.91,12.57,11,12.57Z" transform="translate(-35.01 -213.33)"/><path class="cls-2" d="M392.32,869.41V460.6a11.16,11.16,0,0,1,11.22-11.09H465a11.16,11.16,0,0,1,11.22,11.09V869.42A11.16,11.16,0,0,1,465,880.51H403.54A11.16,11.16,0,0,1,392.32,869.41Z" transform="translate(-35.01 -213.33)"/><path d="M201.5,118.88" transform="translate(-35.01 -213.33)"/></svg>