<?xml version="1.0" encoding="utf-8"?>
<!-- Generator: Adobe Illustrator 23.0.6, SVG Export Plug-In . SVG Version: 6.00 Build 0)  -->
<svg version="1.1" id="Layer_1" xmlns="http://www.w3.org/2000/svg" xmlns:xlink="http://www.w3.org/1999/xlink" x="0px" y="0px"
	 viewBox="0 0 1000 1000" style="enable-background:new 0 0 1000 1000;" xml:space="preserve">
<style type="text/css">
	.st0{fill:#F07B47;}
</style>
<g>
	<g>
		<path class="st0" d="M55.66,221.31c1.92-4.81,6.58-7.97,11.76-7.97h460.13c7.46,0,14.13,4.44,16.66,11.11l15.46,43.11
			c3.24,8.51-6.23,20.57-15.75,20.57l-193.71,0.54c-8.24,0.02-14.9,6.3-14.9,14.03v563.77c0,7.75-6.69,14.03-14.95,14.03h-64.57
			c-8.26,0-14.95-6.28-14.95-14.03v-564.4c0-7.7-6.57-13.94-14.68-13.94H47.69c-8.96,0-15.08-9.04-11.76-17.36L55.66,221.31z"/>
	</g>
	<path d="M392.36,416.96v-81.03c0-5.93,4.74-10.77,10.67-10.9l83.03-1.74c7.09-0.15,12.43,6.4,10.86,13.31l-18.77,82.77
		c-1.13,4.96-5.54,8.49-10.63,8.49h-64.25C397.24,427.86,392.36,422.98,392.36,416.96z"/>
	<path d="M531.95,213.37c46.28,0.1,189.51,0.39,260.33,0.56c58.76,0,103.23,17.29,133.43,51.86C955.9,300.37,971,348.81,971,411.1
		c0,62.3-15.1,110.89-45.29,145.77c-30.19,34.9-74.67,52.02-133.43,51.39H625.35c-6.06,0-10.98,5.63-10.98,12.57v247.72
		c0,6.94-4.91,12.57-10.98,12.57h-55.58c-6.06,0-10.98-5.63-10.98-12.57l-0.08-578.77c0-1.23-0.16-2.44-0.47-3.62l-21.88-72.83
		 M766.17,533.51c44.07,0.63,76.3-9.65,96.7-30.84c20.4-21.17,30.6-51.7,30.6-91.58c0-39.86-10.2-70.23-30.6-91.11
		c-20.4-20.86-52.64-31.3-96.7-31.3H625.35c-6.06,0-10.98,5.63-10.98,12.57v219.69c0,6.94,4.91,12.57,10.98,12.57H766.17z"/>
	<path d="M392.32,869.41V460.6c0-6.13,5.03-11.09,11.22-11.09h61.41c6.2,0,11.22,4.97,11.22,11.09v408.82
		c0,6.13-5.03,11.09-11.22,11.09h-61.41C397.35,880.51,392.32,875.54,392.32,869.41z"/>
	<path d="M201.5,118.88"/>
</g>
</svg>
